<?xml version="1.0" encoding="utf-8"?>
<!-- Generator: Adobe Illustrator 16.0.0, SVG Export Plug-In . SVG Version: 6.00 Build 0)  -->
<!DOCTYPE svg PUBLIC "-//W3C//DTD SVG 1.1//EN" "http://www.w3.org/Graphics/SVG/1.1/DTD/svg11.dtd">
<svg version="1.1" id="Layer_1" xmlns="http://www.w3.org/2000/svg" xmlns:xlink="http://www.w3.org/1999/xlink" x="0px" y="0px"
	 width="500px" height="500px" viewBox="0 0 500 500" xml:space="preserve">
<g>
	<g>
		<path fill-rule="evenodd" clip-rule="evenodd" fill="#1D9ACC" d="M423.432,351.831c-1.494,0.943-0.93,2.65-1.375,3.965
			c-2.604,7.694-10.304,12.31-18.259,10.734c-7.64-1.514-13.298-8.913-12.714-16.626c0.646-8.508,6.811-14.658,15.123-15.09
			c7.866-0.407,14.942,5.19,16.371,12.925c0.172,0.936-0.355,2.11,0.854,2.727C423.432,350.921,423.432,351.376,423.432,351.831z
			 M418.991,350.615c-0.062-6.782-5.434-12.293-11.992-12.302c-6.632-0.008-12.249,5.806-12.143,12.567
			c0.111,7.059,5.461,12.473,12.233,12.383C413.959,363.173,419.056,357.756,418.991,350.615z"/>
		<path fill-rule="evenodd" clip-rule="evenodd" fill="#0D0D0D" d="M71.932,362.069c1.73-1.7,3.118-1.985,5.438-0.294
			c3.882,2.832,8.844,0.713,9.094-3.422c0.119-1.956-0.611-3.481-2.387-4.497c-2.35-1.346-4.763-2.62-6.942-4.211
			c-2.858-2.086-4.345-5.077-3.563-8.604c0.725-3.27,2.692-5.645,6.302-6.311c3.92-0.723,7.055,0.679,9.871,3.229
			c1.151,1.043,0.06,1.531-0.469,2.167c-0.701,0.843-1.295,1.355-2.458,0.376c-1.63-1.372-3.493-2.499-5.821-1.993
			c-1.607,0.351-3.033,1.003-3.53,2.753c-0.516,1.814-0.064,3.467,1.447,4.554c2.101,1.513,4.369,2.79,6.531,4.218
			c5.188,3.428,6.651,8.801,3.562,12.962c-3.382,4.558-10.218,5.319-14.808,1.644c-0.768-0.615-1.511-1.259-2.266-1.89
			C71.932,362.524,71.932,362.296,71.932,362.069z"/>
		<path fill-rule="evenodd" clip-rule="evenodd" fill="#0A0A0A" d="M275.236,361.36c0,1.102-0.091,1.964,0.019,2.8
			c0.229,1.733-0.596,2.062-2.142,2.065c-1.455,0.004-1.936-0.377-1.93-1.892c0.055-13.063,0.051-26.126,0.006-39.189
			c-0.006-1.462,0.416-1.947,1.922-1.949c1.612-0.002,2.191,0.477,2.159,2.133c-0.091,4.653-0.032,9.31-0.032,14.703
			c3.919-3.79,8.121-5.826,13.18-5.513c5.238,0.325,9.208,2.93,12.162,7.079c4.554,6.396,3.327,15.782-2.64,21.283
			C291.631,368.698,283.68,368.25,275.236,361.36z M286.768,362.892c6.889,0.019,12.441-5.41,12.432-12.155
			c-0.011-6.464-5.588-12.358-11.868-12.542c-6.759-0.196-12.383,5.495-12.386,12.535
			C274.941,357.629,280.04,362.873,286.768,362.892z"/>
		<path fill-rule="evenodd" clip-rule="evenodd" fill="#0D0D0D" d="M256.157,339.654c1.327-1.418-1.214-4.756,2.705-4.47
			c1.354,0.1,2.032,0.366,2.021,1.939c-0.066,9.088-0.07,18.177-0.005,27.265c0.012,1.639-0.725,1.882-2.063,1.811
			c-1.14-0.061-2.378,0.199-2.192-1.632c0.078-0.772,0.013-1.56,0.013-3.187c-4.072,3.904-8.243,5.836-13.37,5.531
			c-5.339-0.316-9.172-2.949-12.088-7.123c-4.494-6.434-3.334-15.71,2.465-21.049C238.501,334.265,247.505,331.632,256.157,339.654z
			 M232.768,350.734c-0.031,6.867,5.407,12.473,12.054,12.426c6.783-0.048,11.98-5.387,12.07-12.4
			c0.086-6.635-5.331-12.178-11.91-12.189C238.042,338.559,232.799,343.78,232.768,350.734z"/>
		<path fill-rule="evenodd" clip-rule="evenodd" fill="#0A0A0A" d="M115.523,351.141c-3.752,0-7.519,0.203-11.251-0.067
			c-2.748-0.199-2.716,1.146-2.29,3.01c0.918,4.019,3.255,7.147,7.079,8.455c4.238,1.45,8.507,0.804,12.105-2.178
			c1.03-0.854,2.061-1.888,2.639-3.063c0.886-1.799,1.873-1.034,2.981-0.501c1.474,0.709,1.133,1.619,0.43,2.731
			c-3.851,6.097-9.572,8.07-16.397,7.267c-6.226-0.734-10.202-4.483-12.414-10.185c-2.596-6.689-0.417-14.467,5.219-18.971
			c4.933-3.941,12.778-4.295,18.404-0.593c4.181,2.751,6.528,6.764,7.172,11.764c0.214,1.66-0.116,2.458-2.083,2.377
			C123.259,351.028,119.389,351.141,115.523,351.141z M113.559,347.556c3.071,0,6.143-0.01,9.214,0.006
			c1.157,0.006,1.915,0.066,1.401-1.656c-1.27-4.264-5.767-7.419-11.03-7.407c-4.771,0.011-9.349,3.232-10.451,7.267
			c-0.348,1.274-0.223,1.868,1.311,1.827C107.188,347.507,110.374,347.566,113.559,347.556z"/>
		<path fill-rule="evenodd" clip-rule="evenodd" fill="#0A0A0A" d="M340.782,351.141c-3.753,0-7.519,0.197-11.252-0.066
			c-2.688-0.189-2.755,1.077-2.322,2.985c0.913,4.022,3.252,7.152,7.063,8.47c4.231,1.464,8.495,0.805,12.115-2.146
			c0.959-0.781,2.004-1.677,2.501-2.754c0.807-1.747,1.693-1.682,3.125-0.87c1.69,0.957,0.97,1.892,0.246,3.018
			c-3.831,5.967-9.509,7.784-16.178,7.018c-6.23-0.716-10.208-4.461-12.431-10.16c-2.607-6.686-0.444-14.457,5.19-18.979
			c4.9-3.934,12.797-4.3,18.402-0.622c4.184,2.746,6.547,6.751,7.187,11.752c0.207,1.618-0.036,2.491-2.053,2.404
			C348.519,351.021,344.647,351.141,340.782,351.141z M349.609,347.568c-0.621-5.804-5.896-8.936-10.849-9.053
			c-4.813-0.113-9.084,2.689-10.65,6.813c-0.729,1.913-0.237,2.296,1.647,2.271C336.311,347.518,342.864,347.568,349.609,347.568z"
			/>
		<path fill-rule="evenodd" clip-rule="evenodd" fill="#0A0A0A" d="M198.267,345.867c0-2.611,0.026-5.225-0.01-7.837
			c-0.021-1.519-0.246-2.872,2.11-2.889c2.188-0.017,2.327,1.007,2.276,2.706c-0.173,5.784-0.118,11.577-0.39,17.355
			c-0.326,6.938-5.599,11.371-12.821,11.716c-8.926,0.428-13.451-6.053-13.697-11.536c-0.265-5.892-0.24-11.796-0.401-17.693
			c-0.042-1.54,0.048-2.531,2.086-2.546c2.184-0.015,2.296,1.056,2.279,2.741c-0.054,5.224-0.06,10.449,0.051,15.672
			c0.125,5.895,3.655,9.346,9.336,9.319c5.654-0.026,9.01-3.499,9.132-9.513c0.05-2.497,0.008-4.997,0.008-7.496
			C198.24,345.867,198.253,345.867,198.267,345.867z"/>
		<path fill-rule="evenodd" clip-rule="evenodd" fill="#0C0C0C" d="M152.901,366.866c-10.943,1.002-20.902-10.122-16.096-22.194
			c4.139-10.396,20.517-13.747,28.228-5.601c0.771,0.814,2.618,1.718,1.164,3.228c-1.288,1.339-2.53,1.317-4.139-0.283
			c-4.666-4.639-12.992-4.788-17.919-0.66c-4.822,4.041-5.622,10.922-2.064,16.538c3.625,5.721,14.017,7.372,19.982,1.846
			c0.681-0.631,1.156-2.11,2.322-1.512c1.225,0.629,3.561,1.033,1.245,3.448C162.083,365.365,157.896,366.984,152.901,366.866z"/>
		<path fill-rule="evenodd" clip-rule="evenodd" fill="#1F1F1F" d="M310.31,344.521c0-6.243,0.046-12.487-0.03-18.729
			c-0.021-1.77,0.268-2.675,2.378-2.651c2.044,0.024,2.115,1.037,2.111,2.561c-0.034,12.713-0.05,25.428,0,38.141
			c0.006,1.652-0.268,2.452-2.193,2.429c-1.796-0.023-2.313-0.564-2.285-2.339c0.095-6.469,0.037-12.94,0.037-19.41
			C310.321,344.521,310.315,344.521,310.31,344.521z"/>
		<path fill-rule="evenodd" clip-rule="evenodd" fill="#0A0A0A" d="M214.978,338.691c2.744-2.569,5.073-4.525,8.48-4.028
			c1.012,0.147,2.737,0.017,2.395,1.5c-0.228,0.99-0.69,2.548-2.541,2.691c-5.308,0.413-7.726,2.862-8.055,8.367
			c-0.318,5.326-0.318,10.673-0.448,16.011c-0.037,1.518,0.468,3.062-2.208,3.041c-2.83-0.022-2.039-1.79-2.046-3.182
			c-0.041-8.07-0.078-16.141,0.041-24.209c0.019-1.257-1.238-3.299,1.535-3.681C214.723,334.846,215.27,336.191,214.978,338.691z"/>
		<path fill-rule="evenodd" clip-rule="evenodd" fill="#0892C9" d="M378.988,350.606c0.001-4.314,0.015-8.63-0.009-12.944
			c-0.007-1.27,0.17-2.229,1.792-2.229c1.597,0,1.83,0.911,1.827,2.204c-0.019,8.743-0.021,17.486,0.003,26.23
			c0.004,1.29-0.165,2.152-1.803,2.155c-1.623,0.003-1.837-0.821-1.825-2.132C379.012,359.464,378.988,355.035,378.988,350.606z"/>
		<path fill-rule="evenodd" clip-rule="evenodd" fill="#259ECE" d="M366.868,366.777c-2.12-0.249-3.323-1.219-3.365-3.255
			c-0.041-2.019,1.052-3.257,3.021-3.328c2.14-0.079,3.438,1.239,3.425,3.327C369.938,365.462,368.586,366.474,366.868,366.777z"/>
		<path fill-rule="evenodd" clip-rule="evenodd" fill="#219CCD" d="M383.732,326.679c-0.034,1.235-1.265,2.283-2.995,2.244
			c-1.716-0.038-2.947-1.096-2.905-3.077c0.042-1.966,1.275-3.003,3.009-2.973S383.777,323.975,383.732,326.679z"/>
		<path fill-rule="evenodd" clip-rule="evenodd" fill="#FAFCFC" d="M418.991,350.615c0.064,7.141-5.032,12.558-11.901,12.648
			c-6.772,0.09-12.122-5.324-12.233-12.383c-0.106-6.762,5.511-12.575,12.143-12.567
			C413.558,338.322,418.93,343.833,418.991,350.615z"/>
		<path fill-rule="evenodd" clip-rule="evenodd" fill="#FCFCFC" d="M286.768,362.892c-6.728-0.019-11.826-5.263-11.822-12.162
			c0.003-7.04,5.627-12.731,12.386-12.535c6.28,0.184,11.857,6.078,11.868,12.542C299.209,357.481,293.656,362.91,286.768,362.892z"
			/>
		<path fill-rule="evenodd" clip-rule="evenodd" fill="#FCFCFC" d="M232.768,350.734c0.031-6.954,5.274-12.176,12.215-12.164
			c6.579,0.012,11.996,5.555,11.91,12.189c-0.09,7.014-5.287,12.353-12.07,12.4C238.175,363.207,232.737,357.602,232.768,350.734z"
			/>
		<path fill-rule="evenodd" clip-rule="evenodd" fill="#F3F3F3" d="M113.559,347.562c-3.185,0.005-6.372-0.055-9.554,0.03
			c-1.533,0.041-1.659-0.553-1.311-1.827c1.102-4.034,5.68-7.256,10.451-7.267c5.263-0.012,9.76,3.144,11.03,7.407
			c0.513,1.723-0.245,1.662-1.401,1.656C119.702,347.546,116.63,347.556,113.559,347.562z"/>
		<path fill-rule="evenodd" clip-rule="evenodd" fill="#F3F3F3" d="M349.609,347.568c-6.745,0-13.299-0.051-19.852,0.031
			c-1.885,0.024-2.376-0.358-1.647-2.271c1.566-4.123,5.837-6.926,10.65-6.813C343.714,338.633,348.988,341.765,349.609,347.568z"/>
	</g>
</g>
<g>
	<g>
		<path fill-rule="evenodd" clip-rule="evenodd" fill="#424A60" d="M353.023,112.705c0.711-4.494,1.185-9.014,1.35-13.56
			c0.036-0.979,0.554-1.647,1.253-1.938c0.902-0.375,0.792,0.776,1.144,1.202c4.715,5.713,8.452,12.141,13.295,17.804
			c2.171,2.539,3.474,5.985,5.48,8.85c0.676,0.964,1.6,1.622,2.286,2.528c0.029,0.203,0.005,0.435,0.095,0.604
			c3.416,6.35,6.927,12.666,6.134,20.291c-0.094,0.903,0.265,1.599,1.198,1.894c5.607,1.77,9.904,5.499,14.077,9.414
			c8.345,6.712,15.375,14.693,22.179,22.899c1.312,1.582,2.773,3.039,4.131,4.584c8.945,10.176,17.004,21.068,25.268,31.784
			c2.551,3.308,4.966,6.765,7.493,10.112c1.068,1.414,0.769,1.77-0.693,2.585c-8.634,4.821-18.165,7.463-27.154,11.398
			c-14.037,6.145-28.685,10.4-43.294,14.873c-5.81,1.778-11.633,3.056-17.57,4c-5.106,0.813-10.234,0.73-15.313-0.391
			c-12.311-5.54-20.046-15.125-23.774-27.852c-5.477-18.694-3.202-36.869,5.116-54.254c4.059-8.482,9.486-16.112,17.389-21.636
			c1.687-1.179,2.392-2.373,0.985-4.572c-1.649-2.579-1.932-5.718-2.218-8.802c-0.439-4.744-0.386-9.436-0.098-14.199
			C352.137,124.445,352.654,118.581,353.023,112.705z M355.518,99.678c0.373,3.452-0.153,6.063-0.511,8.689
			c-1.039,7.623-1.454,15.292-1.901,22.969c-0.536,9.213-0.608,18.291,5.179,26.177c1.289,1.756,2.298,4.47,5.271,3.833
			c5.204-1.116,10.366-2.434,15.535-3.705c0.861-0.212,1.645-0.438,1.982-1.603c0.765-2.641,1.686-5.198,1.769-8.02
			c0.213-7.27-2.653-13.688-6.516-19.334c-4.401-6.433-7.97-13.489-13.403-19.203C360.271,106.693,359.058,102.825,355.518,99.678z
			 M386.513,182.362c0.018,3.287,2.405,5.81,5.517,5.828c3.124,0.018,5.559-2.475,5.605-5.74c0.049-3.426-2.446-6.061-5.672-5.991
			C388.855,176.525,386.495,179.083,386.513,182.362z"/>
		<path fill-rule="evenodd" clip-rule="evenodd" fill="#7282BE" d="M165.927,97.506c14.873,0.009,29.746,0.018,44.619,0.027
			c-0.242,0.304-0.435,0.811-0.731,0.88c-4.264,1.004-7.006,3.758-9.432,7.292c-6.952,10.129-10.22,21.688-12.645,33.405
			c-2.522,12.191-4.32,24.527-4.516,37.083c-0.35,22.49-0.029,44.872,5.588,66.856c2.059,8.058,4.332,16.013,8.287,23.377
			c2.418,4.503,4.737,9.037,9.546,11.713c1.281,0.712,3.207,0.168,3.902,1.951c-4.368,0.043-8.737,0.058-13.104,0.15
			c-1.06,0.023-2.259-0.443-3.146,0.59c-2.106-1.61-4.118-3.369-6.337-4.806c-7.011-4.535-16.037-3.597-21.911,2.268
			c-0.836,0.834-1.595,0.702-2.495,0.619c-4.714-3.141-7.296-7.979-9.767-12.78c-3.813-7.412-5.991-15.396-7.976-23.492
			c-3.826-15.599-4.893-31.504-5.633-47.416c-0.604-12.996,0.739-25.954,2.102-38.909c1.358-12.912,3.858-25.505,8.397-37.626
			C153.809,110.328,157.399,102.082,165.927,97.506z"/>
		<path fill-rule="evenodd" clip-rule="evenodd" fill="#556080" d="M249.367,97.493c14.397,0.008,28.793,0.016,43.19,0.023
			c-2.531,1.143-4.938,2.457-6.843,4.558c-5.419,5.976-8.563,13.167-11.084,20.689c-6.38,19.039-8.422,38.786-9.085,58.68
			c-0.577,17.342,0.548,34.64,3.657,51.738c2.11,11.604,4.867,23.03,10.447,33.602c3.037,5.755,6.614,10.812,12.912,13.324
			c-14.398,0.008-28.796,0.016-43.195,0.023c-0.036-1.048-0.91-1.315-1.631-1.635c-2.237-0.996-3.821-2.67-5.256-4.602
			c-5.663-7.618-8.99-16.344-11.484-25.331c-4.141-14.924-6.111-30.271-6.819-45.692c-0.749-16.293-0.42-32.644,1.867-48.823
			c1.673-11.834,3.741-23.656,8.367-34.819c3.335-8.047,6.309-16.344,14.632-20.908C249.242,98.212,249.263,97.776,249.367,97.493z"
			/>
		<path fill-rule="evenodd" clip-rule="evenodd" fill="#424A60" d="M165.927,97.506c-8.528,4.576-12.119,12.822-15.25,21.183
			c-4.54,12.121-7.04,24.714-8.397,37.626c-1.363,12.955-2.707,25.913-2.102,38.909c0.741,15.911,1.808,31.817,5.633,47.416
			c1.985,8.096,4.163,16.08,7.976,23.492c2.471,4.802,5.052,9.64,9.767,12.781c-0.012,0.394-0.024,0.787-0.036,1.18
			c-11.795,0.037-23.595,0.3-35.383,0.016c-5.979-0.144-9.66-4.372-12.611-9.164c-0.261-0.423-0.526-0.845-0.789-1.268
			c-1.268-2.452-2.667-4.848-3.779-7.369c-3.525-7.992-5.465-16.481-7.581-24.911c-3.497-18.686-4.528-37.548-4.1-56.521
			c0.487-21.613,3.129-42.873,10.717-63.26c2.224-5.975,5.293-11.6,9.819-16.216c2.688-2.742,6.014-4.062,9.989-4.017
			C141.841,97.519,153.885,97.478,165.927,97.506z"/>
		<path fill-rule="evenodd" clip-rule="evenodd" fill="#424A60" d="M249.367,97.493c-0.104,0.284-0.125,0.72-0.325,0.829
			c-8.324,4.564-11.297,12.861-14.632,20.908c-4.626,11.164-6.694,22.985-8.367,34.819c-2.287,16.179-2.615,32.53-1.867,48.823
			c0.708,15.42,2.678,30.768,6.819,45.692c2.494,8.987,5.821,17.712,11.484,25.331c1.436,1.932,3.019,3.605,5.256,4.602
			c0.721,0.319,1.596,0.587,1.631,1.635c-12.94-0.013-25.881-0.026-38.822-0.04c-0.694-1.783-2.62-1.239-3.901-1.951
			c-4.81-2.676-7.128-7.21-9.546-11.713c-3.955-7.364-6.228-15.319-8.287-23.377c-5.617-21.985-5.938-44.366-5.588-66.856
			c0.196-12.555,1.993-24.892,4.516-37.083c2.424-11.718,5.692-23.276,12.645-33.405c2.426-3.534,5.168-6.288,9.432-7.292
			c0.296-0.069,0.49-0.576,0.731-0.88C223.486,97.52,236.427,97.506,249.367,97.493z"/>
		<path fill-rule="evenodd" clip-rule="evenodd" fill="#7282BE" d="M292.562,280.107c-6.298-2.513-9.875-7.569-12.912-13.324
			c-5.58-10.571-8.337-21.998-10.447-33.602c-3.109-17.099-4.234-34.396-3.657-51.738c0.663-19.894,2.705-39.642,9.085-58.68
			c2.521-7.523,5.665-14.713,11.084-20.689c1.904-2.101,4.312-3.415,6.843-4.558c13.802-0.007,27.604-0.014,41.406-0.021
			c-2.238,1.603-4.996,2.458-6.828,4.637c-4.12,4.903-7.003,10.516-9.311,16.447c-4.519,11.62-6.647,23.804-8.54,36.049
			c-0.861,5.574-0.791,11.231-1.436,16.798c-0.848,7.325-0.281,14.648-0.71,21.967c-0.314,5.367,0.692,10.799,0.885,16.211
			c0.291,8.197,1.605,16.255,3.049,24.292c1.43,7.964,3.206,15.856,6.162,23.425c3.547,9.087,6.934,18.302,16.73,22.808
			c-1.481,0.029-2.963,0.058-4.443,0.086c-3.727-2.861-7.571-5.585-11.151-8.621c-4.402-3.733-9.689-3.96-14.714-3.121
			c-6.179,1.032-8.391,6.196-9.343,11.876C293.729,280.269,293.146,280.188,292.562,280.107z"/>
		<path fill-rule="evenodd" clip-rule="evenodd" fill="#7EAAD9" d="M333.965,280.129c-9.797-4.506-13.184-13.721-16.73-22.808
			c-2.956-7.568-4.732-15.461-6.162-23.425c-1.443-8.038-2.758-16.096-3.049-24.292c-0.192-5.412-1.199-10.844-0.885-16.211
			c0.429-7.319-0.138-14.642,0.71-21.967c0.645-5.567,0.574-11.224,1.436-16.798c1.893-12.245,4.021-24.429,8.54-36.049
			c2.308-5.932,5.19-11.544,9.311-16.447c1.832-2.179,4.59-3.034,6.828-4.637c6.876-0.806,11.373,2.771,14.84,8.14
			c1.488,2.304,2.818,4.71,4.221,7.07c-0.369,5.875-0.887,11.74-1.243,17.619c-0.288,4.764-0.342,9.456,0.098,14.199
			c0.286,3.084,0.568,6.224,2.218,8.802c1.406,2.199,0.701,3.394-0.985,4.572c-7.902,5.524-13.33,13.153-17.389,21.636
			c-8.318,17.385-10.593,35.56-5.116,54.254c3.729,12.727,11.464,22.312,23.774,27.852c-2.618,5.177-4.679,10.683-9.19,14.703
			C341.953,279.226,338.362,280.808,333.965,280.129z"/>
		<path fill-rule="evenodd" clip-rule="evenodd" fill="#7383BE" d="M103.375,237.397c2.116,8.43,4.056,16.918,7.581,24.911
			c1.112,2.521,2.512,4.917,3.779,7.369c-12.65,6.8-26.541,5.78-40.167,6.286c-7.847,0.291-15.708,0.433-23.557,0.287
			c-3.26-0.061-6.542-0.172-10.738-0.37c3.808-2.379,6.515-5.007,9.505-7.224c6.392-4.739,12.984-9.212,19.561-13.695
			c3.21-2.188,6.53-4.224,9.872-6.208c4.362-2.59,8.352-5.757,13.086-7.794C95.904,239.407,99.464,237.916,103.375,237.397z"/>
		<path fill-rule="evenodd" clip-rule="evenodd" fill="#444C62" d="M294.313,280.349c0.952-5.68,3.164-10.844,9.343-11.876
			c5.024-0.839,10.312-0.612,14.714,3.121c3.58,3.036,7.425,5.76,11.151,8.621c2.526,2.891,5.055,5.78,7.815,8.937
			c-4.539,0.772-8.892,1.05-13.233,1.067c-2.851,0.011-3.742,0.846-3.118,3.764c0.703,3.292,0.893,6.693,1.398,10.793
			c-3.551-1.819-6.667-3.246-9.603-4.98c-1.947-1.15-2.781-1.144-3.646,1.244c-1.728,4.771-3.874,9.39-6.18,14.856
			c-4.014-9.573-8.151-18.16-9.663-27.665C292.869,285.573,293.417,282.905,294.313,280.349z"/>
		<path fill-rule="evenodd" clip-rule="evenodd" fill="#444C62" d="M163.518,280.093c0.012-0.393,0.024-0.786,0.036-1.18
			c0.9,0.082,1.658,0.214,2.495-0.62c5.874-5.864,14.9-6.803,21.911-2.268c2.22,1.437,4.231,3.195,6.337,4.806
			c3.939,4.358,7.879,8.717,11.7,12.944c-3.218,0.213-7.151,0.509-11.088,0.721c-4.837,0.262-4.829,0.23-4.123,5.118
			c0.423,2.93,0.808,5.865,1.311,9.533c-3.805-1.961-7.092-3.532-10.249-5.335c-1.582-0.902-2.223-0.646-2.855,1.02
			c-1.871,4.933-3.57,9.951-6.472,15.025c-4.123-9.02-7.967-17.593-9.565-26.971c-0.642-3.768,1.172-7.236,1.583-10.885
			C164.652,280.985,164.938,280.163,163.518,280.093z"/>
		<path fill-rule="evenodd" clip-rule="evenodd" fill="#7483BF" d="M399.335,159.793c-4.173-3.915-8.47-7.644-14.077-9.414
			c-0.934-0.295-1.292-0.991-1.198-1.894c0.793-7.625-2.718-13.941-6.134-20.291c-0.09-0.169-0.065-0.401-0.095-0.604
			c4.046-10.219,9.097-19.943,14.332-29.766c1.419,0.939,1.473,2.259,1.778,3.351c3.151,11.277,6.345,22.54,8.501,34.071
			c1.461,7.81,1.195,15.335-2.555,22.507C399.55,158.402,399.217,159.031,399.335,159.793z"/>
		<path fill-rule="evenodd" clip-rule="evenodd" fill="#7282BE" d="M355.518,99.678c3.54,3.147,4.754,7.016,7.404,9.803
			c5.434,5.714,9.002,12.77,13.403,19.203c3.862,5.646,6.729,12.064,6.516,19.334c-0.083,2.821-1.004,5.379-1.769,8.02
			c-0.338,1.165-1.121,1.391-1.982,1.603c-5.169,1.271-10.331,2.589-15.535,3.705c-2.973,0.637-3.981-2.077-5.271-3.833
			c-5.787-7.887-5.715-16.964-5.179-26.177c0.447-7.676,0.862-15.346,1.901-22.969C355.364,105.741,355.891,103.13,355.518,99.678z"
			/>
		<path fill-rule="evenodd" clip-rule="evenodd" fill="#F9FAFA" d="M386.513,182.362c-0.018-3.279,2.343-5.837,5.45-5.903
			c3.226-0.069,5.721,2.565,5.672,5.991c-0.047,3.265-2.481,5.758-5.605,5.74C388.918,188.172,386.53,185.649,386.513,182.362z"/>
	</g>
</g>
</svg>
