<?xml version="1.0" encoding="UTF-8" standalone="no"?><!DOCTYPE svg PUBLIC "-//W3C//DTD SVG 1.1//EN" "http://www.w3.org/Graphics/SVG/1.1/DTD/svg11.dtd"><svg width="100%" height="100%" viewBox="0 0 325 226" version="1.1" xmlns="http://www.w3.org/2000/svg" xmlns:xlink="http://www.w3.org/1999/xlink" xml:space="preserve" style="fill-rule:evenodd;clip-rule:evenodd;stroke-linejoin:round;stroke-miterlimit:1.41421;"><g><g><path d="M214.146,0l106.723,0l0,31.949l-72.11,0l0,29.289l68.117,0l0,31.949l-68.117,0l0,31.951l76.104,0l0,31.949l-110.717,0l0,-157.087Z" style="fill:#5bc2ae;fill-rule:nonzero;"/><path d="M146.882,157.088l-34.612,0l0,-74.551l-63.901,74.551l-48.369,0l75.882,-84.092l-69.892,-72.996l45.263,0l61.017,65.23l0,-65.23l34.612,0l0,157.088Z" style="fill:#d21c5b;fill-rule:nonzero;"/><path d="M112.312,0l34.613,0l0,58.574l67.229,0l0,-58.574l34.613,0l0,157.088l-34.613,0l0,-67.895l-67.229,0l0,67.895l-34.613,0l0,-157.088l0,0Z" style="fill:#f8971d;fill-rule:nonzero;"/></g><g><path d="M70.858,217.28l-6.97,-9.254l6.97,-9.254l2.065,0l-7.112,9.254l7.112,9.254l-2.065,0ZM61.823,217.28l0,-18.508l1.665,0l0,18.508l-1.665,0Z" style="fill:#4d7bbe;fill-rule:nonzero;"/><path d="M75.569,217.28l0,-18.508l10.416,0l0,1.588l-8.751,0l0,6.879l7.086,0l0,1.587l-7.086,0l0,6.867l8.751,0l0,1.587l-10.416,0Z" style="fill:#4d7bbe;fill-rule:nonzero;"/><path d="M98.698,217.28l-7.718,-13.474l-0.155,-0.801l0,14.275l-1.665,0l0,-18.508l0.864,0l7.719,13.488l0.167,0.787l0,-14.275l1.665,0l0,18.508l-0.877,0Z" style="fill:#4d7bbe;fill-rule:nonzero;"/><path d="M108.3,200.36l0,16.92l-1.665,0l0,-16.92l-4.414,0l0,-1.588l10.493,0l0,1.588l-4.414,0Z" style="fill:#4d7bbe;fill-rule:nonzero;"/><path d="M130.19,217.28l0,-8.454l-7.086,0l0,8.454l-1.665,0l0,-18.508l1.665,0l0,8.467l7.086,0l0,-8.467l1.665,0l0,18.508l-1.665,0Z" style="fill:#4d7bbe;fill-rule:nonzero;"/><path d="M143.032,212.969l-5.859,0l-1.213,4.311l-1.73,0l5.421,-18.508l0.877,0l5.447,18.508l-1.716,0l-1.227,-4.311ZM137.624,211.382l4.97,0l-2.44,-8.531l-0.051,-0.684l-0.052,0.684l-2.427,8.531Z" style="fill:#4d7bbe;fill-rule:nonzero;"/><path d="M158.495,212.995c0,0.628 -0.119,1.218 -0.355,1.768c-0.237,0.551 -0.562,1.033 -0.975,1.446c-0.413,0.413 -0.895,0.738 -1.445,0.974c-0.551,0.237 -1.14,0.355 -1.768,0.355l-1.317,0c-0.628,0 -1.22,-0.118 -1.775,-0.355c-0.555,-0.236 -1.039,-0.561 -1.452,-0.974c-0.413,-0.413 -0.738,-0.895 -0.974,-1.446c-0.237,-0.55 -0.355,-1.14 -0.355,-1.768l0,-9.938c0,-0.628 0.118,-1.217 0.355,-1.768c0.236,-0.551 0.561,-1.033 0.974,-1.446c0.413,-0.413 0.897,-0.738 1.452,-0.974c0.555,-0.237 1.147,-0.355 1.775,-0.355l1.317,0c0.628,0 1.217,0.118 1.768,0.355c0.55,0.236 1.032,0.561 1.445,0.974c0.413,0.413 0.738,0.895 0.975,1.446c0.236,0.551 0.355,1.14 0.355,1.768l0,0.749l-1.665,0.258l0,-1.007c0,-0.413 -0.078,-0.798 -0.233,-1.155c-0.154,-0.357 -0.365,-0.669 -0.632,-0.936c-0.267,-0.267 -0.579,-0.477 -0.936,-0.632c-0.357,-0.155 -0.742,-0.233 -1.155,-0.233l-1.162,0c-0.413,0 -0.798,0.078 -1.155,0.233c-0.357,0.155 -0.671,0.365 -0.942,0.632c-0.271,0.267 -0.484,0.579 -0.639,0.936c-0.155,0.357 -0.232,0.742 -0.232,1.155l0,9.938c0,0.413 0.077,0.798 0.232,1.155c0.155,0.358 0.368,0.672 0.639,0.943c0.271,0.271 0.585,0.484 0.942,0.638c0.357,0.155 0.742,0.233 1.155,0.233l1.162,0c0.413,0 0.798,-0.078 1.155,-0.233c0.357,-0.154 0.669,-0.367 0.936,-0.638c0.267,-0.271 0.478,-0.585 0.632,-0.943c0.155,-0.357 0.233,-0.742 0.233,-1.155l0,-1.006l1.665,0.271l0,0.735Z" style="fill:#4d7bbe;fill-rule:nonzero;"/><path d="M171.234,217.28l-6.97,-9.254l6.97,-9.254l2.065,0l-7.112,9.254l7.112,9.254l-2.065,0ZM162.199,217.28l0,-18.508l1.665,0l0,18.508l-1.665,0Z" style="fill:#4d7bbe;fill-rule:nonzero;"/><path d="M182.024,217.28l0,-18.508l10.415,0l0,1.588l-8.75,0l0,6.879l7.085,0l0,1.587l-7.085,0l0,6.867l8.75,0l0,1.587l-10.415,0Z" style="fill:#4d7bbe;fill-rule:nonzero;"/><path d="M205.153,217.28l-7.719,-13.474l-0.155,-0.801l0,14.275l-1.665,0l0,-18.508l0.865,0l7.718,13.488l0.168,0.787l0,-14.275l1.665,0l0,18.508l-0.877,0Z" style="fill:#4d7bbe;fill-rule:nonzero;"/><path d="M220.408,212.995c0,0.628 -0.118,1.218 -0.355,1.768c-0.236,0.551 -0.561,1.033 -0.974,1.446c-0.413,0.413 -0.895,0.738 -1.446,0.974c-0.55,0.237 -1.14,0.355 -1.768,0.355l-1.316,0c-0.628,0 -1.22,-0.118 -1.775,-0.355c-0.555,-0.236 -1.039,-0.561 -1.452,-0.974c-0.413,-0.413 -0.738,-0.895 -0.975,-1.446c-0.236,-0.55 -0.354,-1.14 -0.354,-1.768l0,-9.938c0,-0.628 0.118,-1.217 0.354,-1.768c0.237,-0.551 0.562,-1.033 0.975,-1.446c0.413,-0.413 0.897,-0.738 1.452,-0.974c0.555,-0.237 1.147,-0.355 1.775,-0.355l1.316,0c0.628,0 1.218,0.118 1.768,0.355c0.551,0.236 1.033,0.561 1.446,0.974c0.413,0.413 0.738,0.895 0.974,1.446c0.237,0.551 0.355,1.14 0.355,1.768l0,9.938ZM218.743,203.057c0,-0.413 -0.077,-0.798 -0.232,-1.155c-0.155,-0.357 -0.366,-0.669 -0.632,-0.936c-0.267,-0.267 -0.579,-0.477 -0.936,-0.632c-0.357,-0.155 -0.742,-0.233 -1.155,-0.233l-1.162,0c-0.413,0 -0.798,0.078 -1.155,0.233c-0.357,0.155 -0.671,0.365 -0.942,0.632c-0.271,0.267 -0.484,0.579 -0.639,0.936c-0.155,0.357 -0.232,0.742 -0.232,1.155l0,9.938c0,0.413 0.077,0.798 0.232,1.155c0.155,0.358 0.368,0.672 0.639,0.943c0.271,0.271 0.585,0.484 0.942,0.638c0.357,0.155 0.742,0.233 1.155,0.233l1.162,0c0.413,0 0.798,-0.078 1.155,-0.233c0.357,-0.154 0.669,-0.367 0.936,-0.638c0.266,-0.271 0.477,-0.585 0.632,-0.943c0.155,-0.357 0.232,-0.742 0.232,-1.155l0,-9.938Z" style="fill:#4d7bbe;fill-rule:nonzero;"/><path d="M234.528,212.995c0,0.628 -0.118,1.218 -0.355,1.768c-0.236,0.551 -0.561,1.033 -0.974,1.446c-0.413,0.413 -0.895,0.738 -1.446,0.974c-0.55,0.237 -1.14,0.355 -1.768,0.355l-1.316,0c-0.629,0 -1.22,-0.118 -1.775,-0.355c-0.555,-0.236 -1.039,-0.561 -1.452,-0.974c-0.413,-0.413 -0.738,-0.895 -0.975,-1.446c-0.236,-0.55 -0.354,-1.14 -0.354,-1.768l0,-14.223l1.665,0l0,14.223c0,0.413 0.077,0.798 0.232,1.155c0.155,0.358 0.368,0.672 0.639,0.943c0.271,0.271 0.585,0.484 0.942,0.638c0.357,0.155 0.742,0.233 1.155,0.233l1.162,0c0.413,0 0.798,-0.078 1.155,-0.233c0.357,-0.154 0.669,-0.367 0.936,-0.638c0.266,-0.271 0.477,-0.585 0.632,-0.943c0.155,-0.357 0.232,-0.742 0.232,-1.155l0,-14.223l1.665,0l0,14.223Z" style="fill:#4d7bbe;fill-rule:nonzero;"/><path d="M248.648,217.28l-0.529,0l-0.968,-1.484c-0.404,0.534 -0.895,0.957 -1.471,1.271c-0.577,0.314 -1.218,0.471 -1.923,0.471l-0.968,0c-0.629,0 -1.22,-0.118 -1.775,-0.355c-0.555,-0.236 -1.039,-0.561 -1.452,-0.974c-0.413,-0.413 -0.738,-0.895 -0.975,-1.446c-0.236,-0.55 -0.354,-1.14 -0.354,-1.768l0,-9.938c0,-0.628 0.118,-1.217 0.354,-1.768c0.237,-0.551 0.562,-1.033 0.975,-1.446c0.413,-0.413 0.897,-0.738 1.452,-0.974c0.555,-0.237 1.146,-0.355 1.775,-0.355l1.316,0c0.628,0 1.218,0.118 1.768,0.355c0.551,0.236 1.033,0.561 1.446,0.974c0.413,0.413 0.738,0.895 0.974,1.446c0.237,0.551 0.355,1.14 0.355,1.768l0,0.749l-1.665,0.258l0,-1.007c0,-0.413 -0.077,-0.798 -0.232,-1.155c-0.155,-0.357 -0.366,-0.669 -0.632,-0.936c-0.267,-0.267 -0.579,-0.477 -0.936,-0.632c-0.357,-0.155 -0.742,-0.233 -1.155,-0.233l-1.162,0c-0.413,0 -0.798,0.078 -1.155,0.233c-0.357,0.155 -0.671,0.365 -0.942,0.632c-0.271,0.267 -0.484,0.579 -0.639,0.936c-0.155,0.357 -0.233,0.742 -0.233,1.155l0,9.938c0,0.413 0.078,0.798 0.233,1.155c0.155,0.358 0.368,0.672 0.639,0.943c0.271,0.271 0.585,0.484 0.942,0.638c0.357,0.155 0.742,0.233 1.155,0.233l1.162,0c0.413,0 0.798,-0.078 1.155,-0.233c0.357,-0.154 0.669,-0.367 0.936,-0.638c0.266,-0.271 0.477,-0.585 0.632,-0.943c0.155,-0.357 0.232,-0.742 0.232,-1.155l0,-3.859l-2.955,0l0,-1.587l4.62,0l0,9.731Z" style="fill:#4d7bbe;fill-rule:nonzero;"/><path d="M261.374,217.28l0,-8.454l-7.086,0l0,8.454l-1.664,0l0,-18.508l1.664,0l0,8.467l7.086,0l0,-8.467l1.665,0l0,18.508l-1.665,0Z" style="fill:#4d7bbe;fill-rule:nonzero;"/></g></g></svg>